<mxfile host="app.diagrams.net" modified="2022-06-14T08:29:27.216Z" agent="5.0 (Windows NT 10.0; Win64; x64) AppleWebKit/537.36 (KHTML, like Gecko) Chrome/91.0.4472.124 Safari/537.36" etag="tsm78Z6u7SFfJZ9wFUHp" version="20.0.1" type="github">
  <diagram id="kgpKYQtTHZ0yAKxKKP6v" name="Page-1">
    <mxGraphModel dx="981" dy="555" grid="1" gridSize="10" guides="1" tooltips="1" connect="1" arrows="1" fold="1" page="1" pageScale="1" pageWidth="850" pageHeight="1100" math="0" shadow="0">
      <root>
        <mxCell id="0" />
        <mxCell id="1" parent="0" />
        <mxCell id="3nuBFxr9cyL0pnOWT2aG-1" value=":MeetingController" style="shape=umlLifeline;perimeter=lifelinePerimeter;container=1;collapsible=0;recursiveResize=0;rounded=0;shadow=0;strokeWidth=1;" parent="1" vertex="1">
          <mxGeometry x="250" y="80" width="110" height="320" as="geometry" />
        </mxCell>
        <mxCell id="3nuBFxr9cyL0pnOWT2aG-2" value="" style="points=[];perimeter=orthogonalPerimeter;rounded=0;shadow=0;strokeWidth=1;" parent="3nuBFxr9cyL0pnOWT2aG-1" vertex="1">
          <mxGeometry x="50" y="70" width="10" height="210" as="geometry" />
        </mxCell>
        <mxCell id="3nuBFxr9cyL0pnOWT2aG-5" value=":MeetingDao" style="shape=umlLifeline;perimeter=lifelinePerimeter;container=1;collapsible=0;recursiveResize=0;rounded=0;shadow=0;strokeWidth=1;" parent="1" vertex="1">
          <mxGeometry x="441" y="80" width="100" height="320" as="geometry" />
        </mxCell>
        <mxCell id="3nuBFxr9cyL0pnOWT2aG-6" value="" style="points=[];perimeter=orthogonalPerimeter;rounded=0;shadow=0;strokeWidth=1;" parent="3nuBFxr9cyL0pnOWT2aG-5" vertex="1">
          <mxGeometry x="45" y="180" width="10" height="60" as="geometry" />
        </mxCell>
        <mxCell id="cHxwvAmJinyuv2emtQZw-32" value="" style="points=[];perimeter=orthogonalPerimeter;rounded=0;shadow=0;strokeWidth=1;" vertex="1" parent="3nuBFxr9cyL0pnOWT2aG-5">
          <mxGeometry x="45" y="92" width="10" height="60" as="geometry" />
        </mxCell>
        <mxCell id="3nuBFxr9cyL0pnOWT2aG-8" value="" style="verticalAlign=bottom;endArrow=block;entryX=0.483;entryY=0.33;shadow=0;strokeWidth=1;entryDx=0;entryDy=0;entryPerimeter=0;" parent="1" edge="1">
          <mxGeometry relative="1" as="geometry">
            <mxPoint x="311" y="178.00000000000023" as="sourcePoint" />
            <mxPoint x="485.29999999999995" y="179" as="targetPoint" />
          </mxGeometry>
        </mxCell>
        <mxCell id="cHxwvAmJinyuv2emtQZw-1" value="" style="shape=umlActor;verticalLabelPosition=bottom;verticalAlign=top;html=1;outlineConnect=0;" vertex="1" parent="1">
          <mxGeometry x="120" y="70" width="30" height="60" as="geometry" />
        </mxCell>
        <mxCell id="cHxwvAmJinyuv2emtQZw-4" value="" style="endArrow=none;dashed=1;html=1;rounded=0;" edge="1" parent="1" target="cHxwvAmJinyuv2emtQZw-1">
          <mxGeometry width="50" height="50" relative="1" as="geometry">
            <mxPoint x="135" y="370" as="sourcePoint" />
            <mxPoint x="135" y="160" as="targetPoint" />
          </mxGeometry>
        </mxCell>
        <mxCell id="cHxwvAmJinyuv2emtQZw-7" value=":dbsql" style="shape=umlLifeline;perimeter=lifelinePerimeter;container=1;collapsible=0;recursiveResize=0;rounded=0;shadow=0;strokeWidth=1;" vertex="1" parent="1">
          <mxGeometry x="625" y="80" width="100" height="320" as="geometry" />
        </mxCell>
        <mxCell id="cHxwvAmJinyuv2emtQZw-8" value="" style="points=[];perimeter=orthogonalPerimeter;rounded=0;shadow=0;strokeWidth=1;" vertex="1" parent="cHxwvAmJinyuv2emtQZw-7">
          <mxGeometry x="45" y="80" width="10" height="210" as="geometry" />
        </mxCell>
        <mxCell id="cHxwvAmJinyuv2emtQZw-10" value="&lt;span style=&quot;font-size: 11px; background-color: rgb(255, 255, 255);&quot;&gt;1:输入申请信息(Meeting)&lt;/span&gt;" style="text;html=1;align=center;verticalAlign=middle;resizable=0;points=[];autosize=1;strokeColor=none;fillColor=none;" vertex="1" parent="1">
          <mxGeometry x="145" y="142" width="150" height="20" as="geometry" />
        </mxCell>
        <mxCell id="cHxwvAmJinyuv2emtQZw-12" value="" style="verticalAlign=bottom;endArrow=block;entryX=0;entryY=0;shadow=0;strokeWidth=1;" edge="1" parent="1">
          <mxGeometry relative="1" as="geometry">
            <mxPoint x="497" y="186.00000000000023" as="sourcePoint" />
            <mxPoint x="667" y="186.00000000000023" as="targetPoint" />
          </mxGeometry>
        </mxCell>
        <mxCell id="cHxwvAmJinyuv2emtQZw-15" value="" style="verticalAlign=bottom;endArrow=open;dashed=1;endSize=8;exitX=0;exitY=0.95;shadow=0;strokeWidth=1;" edge="1" parent="1">
          <mxGeometry relative="1" as="geometry">
            <mxPoint x="495" y="207.9999999999999" as="targetPoint" />
            <mxPoint x="666" y="207.9999999999999" as="sourcePoint" />
          </mxGeometry>
        </mxCell>
        <mxCell id="cHxwvAmJinyuv2emtQZw-17" value="" style="verticalAlign=bottom;endArrow=open;dashed=1;endSize=8;shadow=0;strokeWidth=1;" edge="1" parent="1">
          <mxGeometry x="-0.1228" y="-12" relative="1" as="geometry">
            <mxPoint x="134" y="251.9999999999999" as="targetPoint" />
            <mxPoint x="300" y="250" as="sourcePoint" />
            <mxPoint as="offset" />
          </mxGeometry>
        </mxCell>
        <mxCell id="cHxwvAmJinyuv2emtQZw-18" value="" style="verticalAlign=bottom;endArrow=block;shadow=0;strokeWidth=1;" edge="1" parent="1">
          <mxGeometry relative="1" as="geometry">
            <mxPoint x="135" y="168.00000000000023" as="sourcePoint" />
            <mxPoint x="300" y="168" as="targetPoint" />
          </mxGeometry>
        </mxCell>
        <mxCell id="cHxwvAmJinyuv2emtQZw-21" value="&lt;span style=&quot;font-size: 11px; background-color: rgb(255, 255, 255);&quot;&gt;2:&lt;/span&gt;&lt;span style=&quot;color: rgb(50, 50, 50); font-family: 微软雅黑; font-size: 13px; text-align: left; background-color: rgba(255, 255, 255, 0.01);&quot;&gt;insertMeeting(Meeting)&lt;/span&gt;" style="text;html=1;align=center;verticalAlign=middle;resizable=0;points=[];autosize=1;strokeColor=none;fillColor=none;" vertex="1" parent="1">
          <mxGeometry x="310" y="152" width="170" height="20" as="geometry" />
        </mxCell>
        <mxCell id="cHxwvAmJinyuv2emtQZw-22" value="&lt;span style=&quot;font-size: 11px; background-color: rgb(255, 255, 255);&quot;&gt;3：访问数据库()&lt;/span&gt;" style="text;html=1;align=center;verticalAlign=middle;resizable=0;points=[];autosize=1;strokeColor=none;fillColor=none;" vertex="1" parent="1">
          <mxGeometry x="540" y="162" width="100" height="20" as="geometry" />
        </mxCell>
        <mxCell id="cHxwvAmJinyuv2emtQZw-23" value="&lt;span style=&quot;font-size: 11px; background-color: rgb(255, 255, 255);&quot;&gt;4：返回Boolean&lt;/span&gt;" style="text;html=1;align=center;verticalAlign=middle;resizable=0;points=[];autosize=1;strokeColor=none;fillColor=none;" vertex="1" parent="1">
          <mxGeometry x="540" y="210" width="100" height="20" as="geometry" />
        </mxCell>
        <mxCell id="cHxwvAmJinyuv2emtQZw-24" value="&lt;span style=&quot;font-size: 11px; background-color: rgb(255, 255, 255);&quot;&gt;5：返回Boolean&lt;/span&gt;" style="text;html=1;align=center;verticalAlign=middle;resizable=0;points=[];autosize=1;strokeColor=none;fillColor=none;" vertex="1" parent="1">
          <mxGeometry x="350" y="220" width="100" height="20" as="geometry" />
        </mxCell>
        <mxCell id="cHxwvAmJinyuv2emtQZw-29" value="" style="verticalAlign=bottom;endArrow=open;dashed=1;endSize=8;exitX=-0.079;exitY=0.807;shadow=0;strokeWidth=1;exitDx=0;exitDy=0;exitPerimeter=0;entryX=1.21;entryY=0.345;entryDx=0;entryDy=0;entryPerimeter=0;" edge="1" parent="1" source="cHxwvAmJinyuv2emtQZw-32" target="3nuBFxr9cyL0pnOWT2aG-2">
          <mxGeometry relative="1" as="geometry">
            <mxPoint x="320" y="220" as="targetPoint" />
            <mxPoint x="486" y="224.9999999999999" as="sourcePoint" />
          </mxGeometry>
        </mxCell>
        <mxCell id="cHxwvAmJinyuv2emtQZw-30" value="&lt;span style=&quot;font-size: 11px; background-color: rgb(255, 255, 255);&quot;&gt;6：申请提交结果&lt;/span&gt;" style="text;html=1;align=center;verticalAlign=middle;resizable=0;points=[];autosize=1;strokeColor=none;fillColor=none;" vertex="1" parent="1">
          <mxGeometry x="165" y="250" width="110" height="20" as="geometry" />
        </mxCell>
        <mxCell id="cHxwvAmJinyuv2emtQZw-33" value="" style="verticalAlign=bottom;endArrow=block;entryX=0.483;entryY=0.33;shadow=0;strokeWidth=1;entryDx=0;entryDy=0;entryPerimeter=0;" edge="1" parent="1">
          <mxGeometry relative="1" as="geometry">
            <mxPoint x="312" y="278.0000000000002" as="sourcePoint" />
            <mxPoint x="486.29999999999995" y="279" as="targetPoint" />
          </mxGeometry>
        </mxCell>
        <mxCell id="cHxwvAmJinyuv2emtQZw-34" value="&lt;span style=&quot;font-size: 11px; background-color: rgb(255, 255, 255);&quot;&gt;7:updateMeeting&lt;/span&gt;&lt;span style=&quot;color: rgb(50, 50, 50); font-family: 微软雅黑; font-size: 13px; text-align: left; background-color: rgba(255, 255, 255, 0.01);&quot;&gt;(Meeting)&lt;/span&gt;" style="text;html=1;align=center;verticalAlign=middle;resizable=0;points=[];autosize=1;strokeColor=none;fillColor=none;" vertex="1" parent="1">
          <mxGeometry x="315" y="258" width="170" height="20" as="geometry" />
        </mxCell>
        <mxCell id="cHxwvAmJinyuv2emtQZw-36" value="" style="verticalAlign=bottom;endArrow=block;entryX=0;entryY=0;shadow=0;strokeWidth=1;" edge="1" parent="1">
          <mxGeometry relative="1" as="geometry">
            <mxPoint x="498" y="287.0000000000002" as="sourcePoint" />
            <mxPoint x="668" y="287.0000000000002" as="targetPoint" />
          </mxGeometry>
        </mxCell>
        <mxCell id="cHxwvAmJinyuv2emtQZw-37" value="&lt;span style=&quot;font-size: 11px; background-color: rgb(255, 255, 255);&quot;&gt;8：访问数据库()&lt;/span&gt;" style="text;html=1;align=center;verticalAlign=middle;resizable=0;points=[];autosize=1;strokeColor=none;fillColor=none;" vertex="1" parent="1">
          <mxGeometry x="541" y="263" width="100" height="20" as="geometry" />
        </mxCell>
        <mxCell id="cHxwvAmJinyuv2emtQZw-38" value="" style="verticalAlign=bottom;endArrow=open;dashed=1;endSize=8;exitX=0;exitY=0.95;shadow=0;strokeWidth=1;" edge="1" parent="1">
          <mxGeometry relative="1" as="geometry">
            <mxPoint x="497" y="297.9999999999999" as="targetPoint" />
            <mxPoint x="668" y="297.9999999999999" as="sourcePoint" />
          </mxGeometry>
        </mxCell>
        <mxCell id="cHxwvAmJinyuv2emtQZw-39" value="&lt;span style=&quot;font-size: 11px; background-color: rgb(255, 255, 255);&quot;&gt;9：返回Boolean&lt;/span&gt;" style="text;html=1;align=center;verticalAlign=middle;resizable=0;points=[];autosize=1;strokeColor=none;fillColor=none;" vertex="1" parent="1">
          <mxGeometry x="542" y="300" width="100" height="20" as="geometry" />
        </mxCell>
        <mxCell id="cHxwvAmJinyuv2emtQZw-40" value="" style="verticalAlign=bottom;endArrow=open;dashed=1;endSize=8;exitX=0;exitY=0.95;shadow=0;strokeWidth=1;" edge="1" parent="1">
          <mxGeometry relative="1" as="geometry">
            <mxPoint x="311" y="307.9999999999999" as="targetPoint" />
            <mxPoint x="481.9999999999998" y="307.9999999999999" as="sourcePoint" />
          </mxGeometry>
        </mxCell>
        <mxCell id="cHxwvAmJinyuv2emtQZw-41" value="&lt;span style=&quot;font-size: 11px; background-color: rgb(255, 255, 255);&quot;&gt;10：返回Boolean&lt;/span&gt;" style="text;html=1;align=center;verticalAlign=middle;resizable=0;points=[];autosize=1;strokeColor=none;fillColor=none;" vertex="1" parent="1">
          <mxGeometry x="351" y="310" width="110" height="20" as="geometry" />
        </mxCell>
        <mxCell id="cHxwvAmJinyuv2emtQZw-42" value="" style="verticalAlign=bottom;endArrow=open;dashed=1;endSize=8;shadow=0;strokeWidth=1;" edge="1" parent="1">
          <mxGeometry x="-0.1228" y="-12" relative="1" as="geometry">
            <mxPoint x="133" y="337.9999999999999" as="targetPoint" />
            <mxPoint x="299" y="335.9999999999999" as="sourcePoint" />
            <mxPoint as="offset" />
          </mxGeometry>
        </mxCell>
        <mxCell id="cHxwvAmJinyuv2emtQZw-43" value="&lt;span style=&quot;font-size: 11px; background-color: rgb(255, 255, 255);&quot;&gt;11：审批结果&lt;/span&gt;" style="text;html=1;align=center;verticalAlign=middle;resizable=0;points=[];autosize=1;strokeColor=none;fillColor=none;" vertex="1" parent="1">
          <mxGeometry x="174" y="336" width="90" height="20" as="geometry" />
        </mxCell>
      </root>
    </mxGraphModel>
  </diagram>
</mxfile>
